<svg viewBox="0 0 47 48" fill="none" xmlns="http://www.w3.org/2000/svg"><path d="M44.18 0.759995H2.82001C2.14105 0.759995 1.48991 1.02971 1.00982 1.5098C0.529724 1.98989 0.26001 2.64104 0.26001 3.31999V44.68C0.26001 45.3589 0.529724 46.0101 1.00982 46.4902C1.48991 46.9703 2.14105 47.24 2.82001 47.24H25.09V29.24H19V22.24H25.06V17.06C25.06 11.06 28.72 7.79 34.06 7.79C35.8671 7.78327 37.6732 7.87675 39.47 8.06999V14.34H35.76C32.84 14.34 32.28 15.73 32.28 17.76V22.24H39.23L38.32 29.24H32.32V47.24H44.17C44.849 47.24 45.5001 46.9703 45.9802 46.4902C46.4603 46.0101 46.73 45.3589 46.73 44.68V3.31999C46.73 2.64277 46.4617 1.99313 45.9837 1.51333C45.5058 1.03352 44.8572 0.76264 44.18 0.759995Z" fill="currentColor"/></svg>