<svg viewBox="0 0 49 48" fill="none" xmlns="http://www.w3.org/2000/svg"><path d="M24.5 4.5C30.85 4.5 31.61 4.5 34.12 4.64C35.6301 4.65087 37.1265 4.92847 38.54 5.46C39.5642 5.85645 40.4944 6.46237 41.271 7.23897C42.0476 8.01558 42.6536 8.94577 43.05 9.97C43.5815 11.3835 43.8591 12.8799 43.87 14.39C43.99 16.9 44.01 17.66 44.01 24.01C44.01 30.36 44.01 31.12 43.87 33.63C43.8591 35.1401 43.5815 36.6365 43.05 38.05C42.6536 39.0742 42.0476 40.0044 41.271 40.781C40.4944 41.5576 39.5642 42.1636 38.54 42.56C37.1265 43.0915 35.6301 43.3691 34.12 43.38C31.61 43.5 30.86 43.52 24.5 43.52C18.14 43.52 17.39 43.52 14.88 43.38C13.3699 43.3691 11.8735 43.0915 10.46 42.56C9.44529 42.1545 8.52533 41.5437 7.75783 40.7659C6.99034 39.9881 6.39188 39.06 6 38.04C5.46847 36.6265 5.19087 35.1301 5.18 33.62C5.06 31.11 5.04 30.35 5.04 24C5.04 17.65 5.04 16.89 5.18 14.38C5.19087 12.8699 5.46847 11.3735 6 9.96C6.3967 8.94983 6.99754 8.03235 7.76495 7.26495C8.53235 6.49754 9.44983 5.8967 10.46 5.5C11.8735 4.96847 13.3699 4.69087 14.88 4.68C17.39 4.56 18.15 4.54 24.5 4.54M24.5 0.250004C18.04 0.250004 17.23 0.250003 14.69 0.390003C12.7146 0.431804 10.7604 0.807087 8.91 1.5C7.31693 2.10955 5.8702 3.04797 4.66408 4.25408C3.45797 5.4602 2.51955 6.90693 1.91 8.5C1.21709 10.3504 0.841804 12.3046 0.800003 14.28C0.690003 16.82 0.660004 17.63 0.660004 24.09C0.660004 30.55 0.660003 31.36 0.800003 33.9C0.882471 35.85 1.28798 37.7728 2 39.59C2.60955 41.1831 3.54797 42.6298 4.75408 43.8359C5.9602 45.042 7.40693 45.9804 9 46.59C10.8504 47.2829 12.8046 47.6582 14.78 47.7C17.32 47.81 18.13 47.84 24.59 47.84C31.05 47.84 31.86 47.84 34.4 47.7C36.3754 47.6582 38.3296 47.2829 40.18 46.59C41.7731 45.9804 43.2198 45.042 44.4259 43.8359C45.632 42.6298 46.5705 41.1831 47.18 39.59C47.8729 37.7396 48.2482 35.7854 48.29 33.81C48.4 31.27 48.43 30.46 48.43 24C48.43 17.54 48.43 16.73 48.29 14.19C48.2482 12.2146 47.8729 10.2604 47.18 8.41C46.5705 6.81693 45.632 5.3702 44.4259 4.16408C43.2198 2.95797 41.7731 2.01955 40.18 1.41C38.3296 0.717087 36.3754 0.341804 34.4 0.300003C31.86 0.190003 31.05 0.160004 24.59 0.160004L24.5 0.250004Z" fill="currentColor"/><path d="M24.5 11.78C22.0831 11.78 19.7205 12.4967 17.7109 13.8394C15.7013 15.1822 14.1351 17.0907 13.2102 19.3236C12.2853 21.5565 12.0433 24.0136 12.5148 26.384C12.9863 28.7544 14.1501 30.9318 15.8591 32.6408C17.5681 34.3498 19.7455 35.5137 22.116 35.9852C24.4864 36.4567 26.9435 36.2147 29.1764 35.2898C31.4093 34.3649 33.3178 32.7986 34.6605 30.7891C36.0033 28.7795 36.72 26.4169 36.72 24C36.72 20.7591 35.4325 17.6508 33.1408 15.3592C30.8491 13.0675 27.7409 11.78 24.5 11.78ZM24.5 31.93C22.9316 31.93 21.3984 31.4649 20.0943 30.5936C18.7902 29.7222 17.7738 28.4837 17.1736 27.0347C16.5734 25.5857 16.4164 23.9912 16.7223 22.4529C17.0283 20.9147 17.7836 19.5017 18.8926 18.3926C20.0016 17.2836 21.4146 16.5284 22.9529 16.2224C24.4912 15.9164 26.0856 16.0734 27.5347 16.6736C28.9837 17.2738 30.2222 18.2902 31.0935 19.5943C31.9649 20.8984 32.43 22.4316 32.43 24C32.43 26.1032 31.5945 28.1202 30.1073 29.6074C28.6202 31.0945 26.6031 31.93 24.5 31.93Z" fill="currentColor"/><path d="M37.2 14.16C38.7796 14.16 40.06 12.8795 40.06 11.3C40.06 9.72047 38.7796 8.44 37.2 8.44C35.6205 8.44 34.34 9.72047 34.34 11.3C34.34 12.8795 35.6205 14.16 37.2 14.16Z" fill="currentColor"/></svg>